<svg width="796" height="53" viewBox="0 0 796 53" fill="none" xmlns="http://www.w3.org/2000/svg">
<rect width="796" height="53" rx="10" fill="#EAEAEA"/>
<path d="M344.632 32C344.525 32 344.435 31.9627 344.36 31.888C344.285 31.8133 344.248 31.7227 344.248 31.616V21.2C344.248 21.0827 344.28 20.9867 344.344 20.912C344.419 20.8373 344.515 20.8 344.632 20.8H353.016C353.133 20.8 353.229 20.8373 353.304 20.912C353.379 20.9867 353.416 21.0827 353.416 21.2V31.616C353.416 31.7333 353.379 31.8293 353.304 31.904C353.229 31.968 353.133 32 353.016 32H351.576C351.469 32 351.379 31.9627 351.304 31.888C351.229 31.8133 351.192 31.7227 351.192 31.616V22.8H346.472V31.616C346.472 31.7227 346.435 31.8133 346.36 31.888C346.296 31.9627 346.205 32 346.088 32H344.632ZM359.392 32.16C358.144 32.16 357.179 31.84 356.496 31.2C355.814 30.5493 355.446 29.664 355.392 28.544L355.376 27.84L355.392 27.136C355.446 26.0267 355.819 25.1467 356.512 24.496C357.206 23.8453 358.166 23.52 359.392 23.52C360.619 23.52 361.579 23.8453 362.272 24.496C362.966 25.1467 363.339 26.0267 363.392 27.136C363.403 27.264 363.408 27.4987 363.408 27.84C363.408 28.1813 363.403 28.416 363.392 28.544C363.339 29.664 362.971 30.5493 362.288 31.2C361.606 31.84 360.64 32.16 359.392 32.16ZM359.392 30.576C359.958 30.576 360.395 30.4 360.704 30.048C361.014 29.6853 361.184 29.1573 361.216 28.464C361.227 28.3573 361.232 28.1493 361.232 27.84C361.232 27.5307 361.227 27.3227 361.216 27.216C361.184 26.5227 361.014 26 360.704 25.648C360.395 25.2853 359.958 25.104 359.392 25.104C358.827 25.104 358.39 25.2853 358.08 25.648C357.771 26 357.6 26.5227 357.568 27.216L357.552 27.84L357.568 28.464C357.6 29.1573 357.771 29.6853 358.08 30.048C358.39 30.4 358.827 30.576 359.392 30.576ZM372.845 31.504C372.898 31.5573 372.925 31.6267 372.925 31.712C372.925 31.7973 372.893 31.8667 372.829 31.92C372.765 31.9733 372.685 32 372.589 32H370.973C370.802 32 370.653 31.92 370.525 31.76L368.445 28.624H367.261V31.616C367.261 31.7227 367.224 31.8133 367.149 31.888C367.074 31.9627 366.984 32 366.877 32H365.565C365.458 32 365.368 31.9627 365.293 31.888C365.218 31.8133 365.181 31.7227 365.181 31.616V24.064C365.181 23.9573 365.218 23.8667 365.293 23.792C365.368 23.7173 365.458 23.68 365.565 23.68H366.877C366.984 23.68 367.074 23.7173 367.149 23.792C367.224 23.8667 367.261 23.9573 367.261 24.064V26.928H368.445L370.365 23.936C370.429 23.8507 370.493 23.7867 370.557 23.744C370.621 23.7013 370.706 23.68 370.813 23.68H372.237C372.344 23.68 372.429 23.7067 372.493 23.76C372.557 23.8133 372.589 23.8827 372.589 23.968C372.589 24.032 372.562 24.1013 372.509 24.176L370.221 27.696L372.845 31.504ZM376.738 32.16C376.194 32.16 375.692 32.0533 375.234 31.84C374.786 31.616 374.428 31.3173 374.162 30.944C373.906 30.5707 373.778 30.16 373.778 29.712C373.778 28.9867 374.071 28.4 374.658 27.952C375.244 27.504 376.05 27.2 377.074 27.04L379.266 26.72V26.384C379.266 25.9147 379.148 25.5627 378.914 25.328C378.679 25.0933 378.3 24.976 377.778 24.976C377.426 24.976 377.138 25.0453 376.914 25.184C376.7 25.312 376.53 25.44 376.402 25.568C376.274 25.7067 376.188 25.7973 376.146 25.84C376.103 25.968 376.023 26.032 375.906 26.032H374.674C374.578 26.032 374.492 26 374.418 25.936C374.354 25.872 374.322 25.7867 374.322 25.68C374.332 25.4133 374.46 25.1093 374.706 24.768C374.962 24.4267 375.351 24.1333 375.874 23.888C376.396 23.6427 377.036 23.52 377.794 23.52C379.052 23.52 379.97 23.8027 380.546 24.368C381.122 24.9333 381.41 25.6747 381.41 26.592V31.616C381.41 31.7227 381.372 31.8133 381.298 31.888C381.234 31.9627 381.143 32 381.026 32H379.73C379.623 32 379.532 31.9627 379.458 31.888C379.383 31.8133 379.346 31.7227 379.346 31.616V30.992C379.111 31.3333 378.775 31.616 378.338 31.84C377.911 32.0533 377.378 32.16 376.738 32.16ZM377.282 30.64C377.868 30.64 378.348 30.448 378.722 30.064C379.095 29.68 379.282 29.12 379.282 28.384V28.048L377.682 28.304C377.063 28.4 376.594 28.5547 376.274 28.768C375.964 28.9813 375.81 29.2427 375.81 29.552C375.81 29.8933 375.954 30.16 376.242 30.352C376.53 30.544 376.876 30.64 377.282 30.64ZM386.662 32.16C385.809 32.16 385.116 32.0373 384.582 31.792C384.06 31.536 383.676 31.2267 383.43 30.864C383.196 30.5013 383.068 30.144 383.046 29.792V29.744C383.046 29.6693 383.073 29.6107 383.126 29.568C383.19 29.5147 383.26 29.488 383.334 29.488H384.646C384.753 29.488 384.833 29.5093 384.886 29.552C384.95 29.5947 385.004 29.664 385.046 29.76C385.153 30.0693 385.345 30.2933 385.622 30.432C385.91 30.56 386.284 30.624 386.742 30.624C387.212 30.624 387.585 30.5333 387.862 30.352C388.14 30.1707 388.278 29.8933 388.278 29.52C388.278 28.7947 387.846 28.432 386.982 28.432H386.102C385.996 28.432 385.91 28.4 385.846 28.336C385.782 28.272 385.75 28.1867 385.75 28.08V27.408C385.75 27.312 385.782 27.232 385.846 27.168C385.91 27.0933 385.996 27.056 386.102 27.056H386.918C387.302 27.056 387.59 26.9867 387.782 26.848C387.974 26.6987 388.07 26.4693 388.07 26.16C388.07 25.8507 387.958 25.5947 387.734 25.392C387.51 25.1787 387.148 25.072 386.646 25.072C386.166 25.072 385.82 25.1467 385.606 25.296C385.393 25.4453 385.228 25.6907 385.11 26.032C385.057 26.128 384.998 26.1973 384.934 26.24C384.881 26.2827 384.801 26.304 384.694 26.304H383.43C383.345 26.304 383.27 26.2773 383.206 26.224C383.142 26.16 383.116 26.0853 383.126 26C383.148 25.5733 383.281 25.1733 383.526 24.8C383.782 24.4267 384.172 24.1227 384.694 23.888C385.217 23.6427 385.873 23.52 386.662 23.52C387.836 23.52 388.7 23.7493 389.254 24.208C389.82 24.6667 390.102 25.2213 390.102 25.872C390.102 26.288 390.022 26.6347 389.862 26.912C389.713 27.1893 389.457 27.4187 389.094 27.6C389.948 27.9307 390.374 28.6293 390.374 29.696C390.374 30.464 390.033 31.0667 389.35 31.504C388.678 31.9413 387.782 32.16 386.662 32.16ZM394.441 32.16C393.897 32.16 393.395 32.0533 392.937 31.84C392.489 31.616 392.131 31.3173 391.865 30.944C391.609 30.5707 391.481 30.16 391.481 29.712C391.481 28.9867 391.774 28.4 392.361 27.952C392.947 27.504 393.753 27.2 394.777 27.04L396.969 26.72V26.384C396.969 25.9147 396.851 25.5627 396.617 25.328C396.382 25.0933 396.003 24.976 395.481 24.976C395.129 24.976 394.841 25.0453 394.617 25.184C394.403 25.312 394.233 25.44 394.105 25.568C393.977 25.7067 393.891 25.7973 393.849 25.84C393.806 25.968 393.726 26.032 393.609 26.032H392.377C392.281 26.032 392.195 26 392.121 25.936C392.057 25.872 392.025 25.7867 392.025 25.68C392.035 25.4133 392.163 25.1093 392.409 24.768C392.665 24.4267 393.054 24.1333 393.577 23.888C394.099 23.6427 394.739 23.52 395.497 23.52C396.755 23.52 397.673 23.8027 398.249 24.368C398.825 24.9333 399.113 25.6747 399.113 26.592V31.616C399.113 31.7227 399.075 31.8133 399.001 31.888C398.937 31.9627 398.846 32 398.729 32H397.433C397.326 32 397.235 31.9627 397.161 31.888C397.086 31.8133 397.049 31.7227 397.049 31.616V30.992C396.814 31.3333 396.478 31.616 396.041 31.84C395.614 32.0533 395.081 32.16 394.441 32.16ZM394.985 30.64C395.571 30.64 396.051 30.448 396.425 30.064C396.798 29.68 396.985 29.12 396.985 28.384V28.048L395.385 28.304C394.766 28.4 394.297 28.5547 393.977 28.768C393.667 28.9813 393.513 29.2427 393.513 29.552C393.513 29.8933 393.657 30.16 393.945 30.352C394.233 30.544 394.579 30.64 394.985 30.64ZM403.709 32C403.603 32 403.512 31.9627 403.437 31.888C403.363 31.8133 403.325 31.7227 403.325 31.616V25.376H400.717C400.611 25.376 400.52 25.3387 400.445 25.264C400.371 25.1893 400.333 25.0933 400.333 24.976V24.064C400.333 23.9467 400.371 23.856 400.445 23.792C400.52 23.7173 400.611 23.68 400.717 23.68H407.981C408.099 23.68 408.195 23.7173 408.269 23.792C408.344 23.8667 408.381 23.9573 408.381 24.064V24.976C408.381 25.0827 408.344 25.1787 408.269 25.264C408.195 25.3387 408.099 25.376 407.981 25.376H405.389V31.616C405.389 31.7227 405.352 31.8133 405.277 31.888C405.213 31.9627 405.123 32 405.005 32H403.709ZM410.034 32C409.927 32 409.836 31.9627 409.762 31.888C409.687 31.8133 409.65 31.7227 409.65 31.616V24.064C409.65 23.9573 409.687 23.8667 409.762 23.792C409.836 23.7173 409.927 23.68 410.034 23.68H411.378C411.484 23.68 411.575 23.7173 411.65 23.792C411.724 23.8667 411.762 23.9573 411.762 24.064V26.32H413.41C414.476 26.32 415.287 26.576 415.842 27.088C416.396 27.5893 416.674 28.2933 416.674 29.2C416.674 30.128 416.386 30.8267 415.81 31.296C415.234 31.7653 414.391 32 413.282 32H410.034ZM413.234 30.48C413.767 30.48 414.156 30.384 414.402 30.192C414.647 29.9893 414.77 29.6587 414.77 29.2C414.77 28.7413 414.647 28.4 414.402 28.176C414.156 27.952 413.767 27.84 413.234 27.84H411.73V30.48H413.234ZM425.374 32.16C424.19 32.16 423.246 31.8187 422.542 31.136C421.849 30.4427 421.481 29.472 421.438 28.224L421.422 27.824L421.438 27.424C421.492 26.208 421.865 25.2533 422.558 24.56C423.262 23.8667 424.201 23.52 425.374 23.52C426.633 23.52 427.604 23.904 428.286 24.672C428.98 25.44 429.326 26.464 429.326 27.744V28.08C429.326 28.1867 429.289 28.2773 429.214 28.352C429.14 28.4267 429.044 28.464 428.926 28.464H423.614V28.592C423.636 29.1787 423.796 29.6747 424.094 30.08C424.404 30.4747 424.825 30.672 425.358 30.672C425.988 30.672 426.494 30.4267 426.878 29.936C426.974 29.8187 427.049 29.744 427.102 29.712C427.166 29.68 427.257 29.664 427.374 29.664H428.75C428.846 29.664 428.926 29.696 428.99 29.76C429.065 29.8133 429.102 29.8827 429.102 29.968C429.102 30.224 428.948 30.528 428.638 30.88C428.34 31.2213 427.908 31.52 427.342 31.776C426.777 32.032 426.121 32.16 425.374 32.16ZM427.15 27.12V27.072C427.15 26.4427 426.99 25.936 426.67 25.552C426.361 25.168 425.929 24.976 425.374 24.976C424.82 24.976 424.388 25.168 424.078 25.552C423.769 25.936 423.614 26.4427 423.614 27.072V27.12H427.15ZM441.201 33.952C441.094 33.952 441.003 33.9147 440.929 33.84C440.854 33.7653 440.817 33.6747 440.817 33.568V32H431.409C431.302 32 431.211 31.9627 431.137 31.888C431.062 31.8133 431.025 31.7227 431.025 31.616V24.064C431.025 23.9573 431.062 23.8667 431.137 23.792C431.211 23.7173 431.302 23.68 431.409 23.68H432.673C432.79 23.68 432.881 23.7173 432.945 23.792C433.019 23.856 433.057 23.9467 433.057 24.064V30.304H435.457V24.064C435.457 23.9467 435.494 23.856 435.569 23.792C435.643 23.7173 435.734 23.68 435.841 23.68H436.993C437.11 23.68 437.201 23.7173 437.265 23.792C437.339 23.856 437.377 23.9467 437.377 24.064V30.304H439.777V24.064C439.777 23.9467 439.814 23.856 439.889 23.792C439.963 23.7173 440.054 23.68 440.161 23.68H441.425C441.531 23.68 441.622 23.7173 441.697 23.792C441.771 23.8667 441.809 23.9573 441.809 24.064V30.304H442.529C442.635 30.304 442.726 30.3413 442.801 30.416C442.875 30.4907 442.913 30.5813 442.913 30.688V33.568C442.913 33.6853 442.875 33.776 442.801 33.84C442.737 33.9147 442.646 33.952 442.529 33.952H441.201ZM447.921 32.16C446.737 32.16 445.793 31.8187 445.089 31.136C444.396 30.4427 444.028 29.472 443.985 28.224L443.969 27.824L443.985 27.424C444.039 26.208 444.412 25.2533 445.105 24.56C445.809 23.8667 446.748 23.52 447.921 23.52C449.18 23.52 450.151 23.904 450.833 24.672C451.527 25.44 451.873 26.464 451.873 27.744V28.08C451.873 28.1867 451.836 28.2773 451.761 28.352C451.687 28.4267 451.591 28.464 451.473 28.464H446.161V28.592C446.183 29.1787 446.343 29.6747 446.641 30.08C446.951 30.4747 447.372 30.672 447.905 30.672C448.535 30.672 449.041 30.4267 449.425 29.936C449.521 29.8187 449.596 29.744 449.649 29.712C449.713 29.68 449.804 29.664 449.921 29.664H451.297C451.393 29.664 451.473 29.696 451.537 29.76C451.612 29.8133 451.649 29.8827 451.649 29.968C451.649 30.224 451.495 30.528 451.185 30.88C450.887 31.2213 450.455 31.52 449.889 31.776C449.324 32.032 448.668 32.16 447.921 32.16ZM449.697 27.12V27.072C449.697 26.4427 449.537 25.936 449.217 25.552C448.908 25.168 448.476 24.976 447.921 24.976C447.367 24.976 446.935 25.168 446.625 25.552C446.316 25.936 446.161 26.4427 446.161 27.072V27.12H449.697ZM445.857 22.176C445.751 22.176 445.665 22.144 445.601 22.08C445.537 22.016 445.505 21.9307 445.505 21.824V20.656C445.505 20.5493 445.537 20.464 445.601 20.4C445.665 20.3253 445.751 20.288 445.857 20.288H447.025C447.132 20.288 447.217 20.3253 447.281 20.4C447.356 20.464 447.393 20.5493 447.393 20.656V21.824C447.393 21.9307 447.356 22.016 447.281 22.08C447.217 22.144 447.132 22.176 447.025 22.176H445.857ZM448.865 22.176C448.759 22.176 448.673 22.144 448.609 22.08C448.545 22.016 448.513 21.9307 448.513 21.824V20.656C448.513 20.5493 448.545 20.464 448.609 20.4C448.673 20.3253 448.759 20.288 448.865 20.288H450.033C450.14 20.288 450.225 20.3253 450.289 20.4C450.364 20.464 450.401 20.5493 450.401 20.656V21.824C450.401 21.9307 450.364 22.016 450.289 22.08C450.225 22.144 450.14 22.176 450.033 22.176H448.865Z" fill="black"/>
</svg>
